<svg width="121" height="24" viewBox="0 0 121 24" fill="none" xmlns="http://www.w3.org/2000/svg">
<path d="M17.664 0.599998L24.992 23H19.68L18.24 18.264H7.232L5.728 23H0.48L7.84 0.599998H12.768L8.48 14.168H16.96L12.768 0.599998H17.664ZM42.1038 0.599998V5.144H34.0718V23H29.1758V5.144H21.1438V0.599998H42.1038Z" fill="#1A73E8"/>
<path d="M44.606 7L48.094 22.936H48.126L49.214 7H54.11L53.022 22.968H43.07L39.55 7H44.606ZM55.23 22.968L54.11 7H59.07L60.158 22.84H60.19L63.486 7H68.542L65.15 22.968H55.23ZM68.7063 14.968C68.7063 12.1093 69.5276 10.008 71.1703 8.664C72.8343 7.29867 75.1703 6.616 78.1783 6.616C79.6503 6.616 80.9623 6.776 82.1143 7.096C83.2876 7.416 84.2689 7.91733 85.0583 8.6C85.8476 9.26133 86.4449 10.1253 86.8503 11.192C87.2769 12.2373 87.4903 13.496 87.4903 14.968C87.4903 17.7413 86.6689 19.8213 85.0263 21.208C83.3836 22.5733 81.1009 23.256 78.1783 23.256C76.8129 23.256 75.5436 23.0853 74.3703 22.744C73.2183 22.4027 72.2156 21.8907 71.3623 21.208C70.5303 20.504 69.8796 19.64 69.4103 18.616C68.9409 17.5707 68.7063 16.3547 68.7063 14.968ZM73.6343 14.936C73.6343 16.408 74.0183 17.4427 74.7863 18.04C75.5756 18.616 76.7063 18.904 78.1783 18.904C79.5863 18.904 80.6636 18.5627 81.4103 17.88C82.1783 17.1973 82.5623 16.216 82.5623 14.936C82.5623 13.592 82.1783 12.6 81.4103 11.96C80.6423 11.32 79.5649 11 78.1783 11C76.7703 11 75.6609 11.3413 74.8503 12.024C74.0396 12.7067 73.6343 13.6773 73.6343 14.936ZM100.089 11.224H97.5933C96.8253 11.224 96.2066 11.2987 95.7373 11.448C95.2679 11.5973 94.9053 11.832 94.6493 12.152C94.3933 12.472 94.2226 12.8773 94.1373 13.368C94.0519 13.8373 94.0093 14.4133 94.0093 15.096V23H89.0813V7H93.9773V12.888C93.9773 11.9493 94.1053 11.096 94.3613 10.328C94.6386 9.56 94.9906 8.89867 95.4173 8.344C95.8653 7.78933 96.3666 7.36267 96.9213 7.064C97.4759 6.76533 98.0413 6.616 98.6173 6.616H100.089V11.224ZM106.347 0.599998V14.968L107.019 12.44L113.547 7H120.683L111.179 15L113.387 14.008C114.667 14.008 115.755 14.0933 116.651 14.264C117.568 14.4133 118.304 14.6907 118.859 15.096C119.435 15.48 119.851 16.0133 120.107 16.696C120.363 17.3787 120.491 18.2427 120.491 19.288V23H115.947V20.408C115.947 19.8533 115.915 19.416 115.851 19.096C115.787 18.776 115.638 18.5307 115.403 18.36C115.19 18.1893 114.87 18.0827 114.443 18.04C114.038 17.9973 113.472 17.976 112.747 17.976H107.659L106.347 19V23H101.675V0.599998H106.347Z" fill="black"/>
</svg>
