<svg width="45" height="44" viewBox="0 0 45 44" fill="none" xmlns="http://www.w3.org/2000/svg">
<path d="M29.4432 8.83483C28.8382 8.20967 28.8712 7.227 29.4945 6.622L35.8544 0.452833C36.166 0.152167 36.5639 0 36.9599 0C37.3614 0 37.7629 0.155833 38.0672 0.471167L29.4432 8.83483ZM18.984 24.5502C18.8557 24.6767 18.7879 24.8472 18.7879 25.0177C18.7879 25.3733 19.0775 25.6667 19.4369 25.6667C19.6 25.6667 19.7632 25.6062 19.8897 25.4833L20.9585 24.4438L20.0547 23.5107L18.984 24.5502ZM28.0114 12.5382L24.3557 16.082C22.3904 17.9868 21.3875 19.833 20.4617 22.4088L22.0769 24.0753C24.6784 23.2302 26.5539 22.286 28.5192 20.3793L32.1749 16.8337L28.0114 12.5382ZM38.674 1.61517L29.2562 10.7488L33.9972 15.6457L43.4169 6.51567C44.108 5.84467 44.4545 4.9555 44.4545 4.0645C44.4545 1.08717 40.8465 -0.493167 38.674 1.61517ZM16.9545 23.8333H9.6212V25.6667H16.9545V23.8333ZM33.4545 21.3583V24.8288C33.4545 32.3583 22.4545 29.3333 22.4545 29.3333C22.4545 29.3333 25.2375 40.3333 17.6182 40.3333H4.1212V3.66667H27.2744L31.0547 0H0.454529V44H19.1344C24.9332 44 37.1212 30.7578 37.1212 26.3743V17.7815L33.4545 21.3583Z" fill="#1A73E8"/>
</svg>
