<svg width="45" height="44" viewBox="0 0 45 44" fill="none" xmlns="http://www.w3.org/2000/svg">
<path fill-rule="evenodd" clip-rule="evenodd" d="M19.9773 44H7.14396C4.5773 44 2.56063 41.91 2.56063 39.4167V18.0767C1.34696 17.2095 0.727295 15.8748 0.727295 14.5182C0.727295 13.8288 0.890462 13.1432 1.25713 12.4483C3.20963 8.96867 5.20429 5.51283 7.24296 2.08267C8.08996 0.7315 9.46313 0 10.9921 0C12.1563 0 12.7741 0.374 13.6413 0.878167C14.855 1.58583 30.1413 10.6902 36.58 14.52C36.7395 14.6153 42.751 18.1647 42.9031 18.2692C44.1186 19.1675 44.7273 20.4637 44.7273 21.8148C44.7273 22.5023 44.5586 23.1807 44.1865 23.8865C42.2358 27.368 40.2393 30.8238 38.2006 34.254C37.1428 35.9407 35.2398 36.619 33.6246 36.2487C32.906 36.6777 22.9436 43.1237 22.1626 43.5233C21.4055 43.912 20.7656 44 19.9773 44ZM6.22729 24.2678V39.4167C6.22729 39.919 6.63246 40.3333 7.14396 40.3333H15.5553C12.402 35.0057 9.2908 29.6505 6.22729 24.2678ZM9.17163 21.9982C9.2688 22.1668 19.5868 39.9593 19.6693 40.073C19.8673 40.3278 20.2175 40.4048 20.5035 40.2527C20.8041 40.084 29.8186 34.2925 29.8186 34.2925C28.6471 33.6013 14.888 25.399 9.17163 21.9982ZM10.3798 3.97833C8.70596 6.64767 4.51496 14.1075 4.44896 14.2633C4.32063 14.5768 4.43429 14.9343 4.72213 15.114C5.09063 15.334 34.0976 32.6168 34.38 32.6608C34.6568 32.7012 34.9245 32.5783 35.0711 32.3418C36.7981 29.4378 40.9488 22.1668 40.9965 22.0733C41.123 21.758 41.0093 21.4005 40.7215 21.2208C40.353 21.0008 11.4193 3.806 11.2231 3.71983C10.8931 3.58417 10.554 3.71617 10.3798 3.97833ZM13.2343 8.91917C15.2583 8.91917 16.901 10.5637 16.901 12.5858C16.901 14.6098 15.2583 16.2525 13.2343 16.2525C11.2103 16.2525 9.56763 14.6098 9.56763 12.5858C9.56763 10.5637 11.2103 8.91917 13.2343 8.91917Z" fill="#1A73E8"/>
</svg>
