<svg width="45" height="41" viewBox="0 0 45 41" fill="none" xmlns="http://www.w3.org/2000/svg">
<path d="M33.0969 40.3333C18.7749 40.3333 18.7749 25.6667 18.7749 25.6667H13.2749L22.403 18.3333L31.6082 25.6667H26.1082C26.1082 25.6667 24.6195 36.839 33.0969 40.3333ZM36.153 13.002C35.7644 5.7585 29.7859 0 22.4415 0C15.0972 0 9.1187 5.7585 8.73003 13.002C4.01836 13.8508 0.441528 17.963 0.441528 22.9167C0.441528 28.4845 4.95703 33 10.5249 33H16.5785C16.0744 31.6855 15.7352 30.426 15.5189 29.3333H10.5249C6.98653 29.3333 4.1082 26.455 4.1082 22.9167C4.1082 17.7888 8.65303 15.8895 12.2354 16.0967C11.9292 8.36367 16.2834 3.66667 22.4415 3.66667C28.772 3.66667 33.2417 8.7945 32.6477 16.0967C35.8469 16.0123 40.7749 17.4735 40.7749 22.9167C40.7749 26.455 37.8965 29.3333 34.3582 29.3333H29.7419C29.8555 30.47 30.1269 31.7698 30.6567 33H34.3582C39.926 33 44.4415 28.4845 44.4415 22.9167C44.4415 17.963 40.8647 13.8508 36.153 13.002Z" fill="#1A73E8"/>
</svg>
