<svg width="44" height="44" viewBox="0 0 44 44" fill="none" xmlns="http://www.w3.org/2000/svg">
<path d="M31.2294 12.7702C32.3001 13.8391 32.3001 15.5734 31.2294 16.6422L16.6446 31.2281C15.5757 32.297 13.8413 32.297 12.7724 31.2281C11.7036 30.1593 11.7036 28.425 12.7724 27.3562L27.3591 12.7702C28.4261 11.7014 30.1605 11.7014 31.2294 12.7702ZM14.4757 37.3111C12.3288 39.4579 8.83612 39.4579 6.68736 37.3111C4.54044 35.1643 4.54044 31.67 6.68736 29.5232L17.026 19.1979C13.5571 18.3564 9.74549 19.2895 7.03571 21.9992L3.09938 25.9353C-1.03313 30.0677 -1.03313 36.7685 3.09938 40.9008C7.23188 45.0331 13.933 45.0331 18.0655 40.9008L22.0018 36.9628C24.7098 34.255 25.643 30.4435 24.8014 26.9748L14.4757 37.3111ZM25.9363 3.09763L22.0018 7.03561C19.2921 9.74526 18.3533 13.5494 19.1967 17.0181L29.5261 6.68728C31.6749 4.54046 35.1675 4.54046 37.3145 6.68728C39.4632 8.8341 39.4632 12.3284 37.3145 14.4752L26.9832 24.806C30.4539 25.6475 34.2582 24.7089 36.9661 22.001L40.9006 18.0649C45.0331 13.9326 45.0331 7.23361 40.9006 3.09946C36.7699 -1.03285 30.0688 -1.03285 25.9363 3.09763Z" fill="#1A73E8"/>
</svg>
