<svg width="347" height="320" viewBox="0 0 347 320" fill="none" xmlns="http://www.w3.org/2000/svg">
<g clip-path="url(#clip0_596_572)">
<path d="M0 7.5C0 3.63401 3.13401 0.5 7 0.5H340C343.866 0.5 347 3.63401 347 7.5V312.5C347 316.366 343.866 319.5 340 319.5H6.99999C3.134 319.5 0 316.366 0 312.5V7.5Z" fill="url(#paint0_linear_596_572)"/>
<rect x="40.9188" y="77.9188" width="324.162" height="184.43" rx="11.308" fill="white"/>
<rect x="40.9188" y="77.9188" width="324.162" height="184.43" rx="11.308" stroke="#E4E4E7" stroke-width="0.837629"/>
<path d="M123.663 119.228C123.663 117.834 123.965 116.594 124.568 115.509C125.171 114.41 126.009 113.559 127.081 112.956C128.166 112.339 129.393 112.031 130.76 112.031C132.435 112.031 133.869 112.473 135.062 113.358C136.255 114.242 137.052 115.448 137.454 116.976H133.675C133.393 116.387 132.991 115.938 132.469 115.629C131.959 115.321 131.376 115.167 130.72 115.167C129.661 115.167 128.803 115.536 128.146 116.273C127.49 117.01 127.161 117.995 127.161 119.228C127.161 120.461 127.49 121.446 128.146 122.183C128.803 122.92 129.661 123.289 130.72 123.289C131.376 123.289 131.959 123.135 132.469 122.826C132.991 122.518 133.393 122.069 133.675 121.479H137.454C137.052 123.007 136.255 124.213 135.062 125.098C133.869 125.969 132.435 126.405 130.76 126.405C129.393 126.405 128.166 126.103 127.081 125.5C126.009 124.884 125.171 124.032 124.568 122.947C123.965 121.861 123.663 120.622 123.663 119.228ZM144.665 126.465C143.567 126.465 142.575 126.23 141.69 125.761C140.819 125.292 140.129 124.622 139.62 123.751C139.124 122.88 138.876 121.861 138.876 120.695C138.876 119.543 139.13 118.531 139.64 117.66C140.149 116.775 140.846 116.098 141.73 115.629C142.615 115.16 143.607 114.926 144.706 114.926C145.805 114.926 146.796 115.16 147.681 115.629C148.565 116.098 149.262 116.775 149.772 117.66C150.281 118.531 150.536 119.543 150.536 120.695C150.536 121.848 150.274 122.867 149.752 123.751C149.242 124.622 148.539 125.292 147.641 125.761C146.756 126.23 145.764 126.465 144.665 126.465ZM144.665 123.49C145.322 123.49 145.878 123.248 146.334 122.766C146.803 122.284 147.038 121.593 147.038 120.695C147.038 119.797 146.81 119.107 146.354 118.625C145.912 118.142 145.362 117.901 144.706 117.901C144.036 117.901 143.479 118.142 143.037 118.625C142.595 119.094 142.374 119.784 142.374 120.695C142.374 121.593 142.588 122.284 143.017 122.766C143.459 123.248 144.009 123.49 144.665 123.49ZM159.194 114.966C160.508 114.966 161.553 115.395 162.33 116.253C163.121 117.097 163.517 118.263 163.517 119.751V126.304H160.099V120.213C160.099 119.462 159.905 118.879 159.516 118.464C159.127 118.048 158.605 117.841 157.948 117.841C157.291 117.841 156.769 118.048 156.38 118.464C155.991 118.879 155.797 119.462 155.797 120.213V126.304H152.359V115.087H155.797V116.574C156.145 116.078 156.614 115.69 157.204 115.408C157.794 115.113 158.457 114.966 159.194 114.966ZM172.74 114.966C174.054 114.966 175.099 115.395 175.876 116.253C176.667 117.097 177.063 118.263 177.063 119.751V126.304H173.645V120.213C173.645 119.462 173.451 118.879 173.062 118.464C172.673 118.048 172.151 117.841 171.494 117.841C170.837 117.841 170.315 118.048 169.926 118.464C169.537 118.879 169.343 119.462 169.343 120.213V126.304H165.905V115.087H169.343V116.574C169.691 116.078 170.16 115.69 170.75 115.408C171.34 115.113 172.003 114.966 172.74 114.966ZM190.026 120.514C190.026 120.836 190.005 121.171 189.965 121.52H182.185C182.239 122.217 182.46 122.753 182.849 123.128C183.251 123.49 183.74 123.671 184.316 123.671C185.174 123.671 185.77 123.309 186.105 122.585H189.764C189.577 123.322 189.235 123.986 188.739 124.575C188.257 125.165 187.647 125.627 186.91 125.962C186.173 126.297 185.348 126.465 184.437 126.465C183.338 126.465 182.36 126.23 181.502 125.761C180.644 125.292 179.974 124.622 179.492 123.751C179.009 122.88 178.768 121.861 178.768 120.695C178.768 119.529 179.002 118.511 179.471 117.64C179.954 116.769 180.624 116.098 181.482 115.629C182.34 115.16 183.325 114.926 184.437 114.926C185.523 114.926 186.487 115.154 187.332 115.609C188.176 116.065 188.833 116.715 189.302 117.559C189.784 118.404 190.026 119.389 190.026 120.514ZM186.508 119.61C186.508 119.02 186.307 118.551 185.904 118.203C185.502 117.854 185 117.68 184.397 117.68C183.82 117.68 183.331 117.847 182.929 118.182C182.541 118.518 182.299 118.993 182.205 119.61H186.508ZM191.156 120.695C191.156 119.529 191.39 118.511 191.859 117.64C192.342 116.769 193.005 116.098 193.849 115.629C194.707 115.16 195.686 114.926 196.784 114.926C198.192 114.926 199.364 115.294 200.303 116.031C201.254 116.769 201.877 117.807 202.172 119.147H198.513C198.205 118.29 197.609 117.861 196.724 117.861C196.094 117.861 195.592 118.109 195.216 118.605C194.841 119.087 194.654 119.784 194.654 120.695C194.654 121.607 194.841 122.31 195.216 122.806C195.592 123.289 196.094 123.53 196.724 123.53C197.609 123.53 198.205 123.101 198.513 122.243H202.172C201.877 123.557 201.254 124.589 200.303 125.339C199.351 126.09 198.178 126.465 196.784 126.465C195.686 126.465 194.707 126.23 193.849 125.761C193.005 125.292 192.342 124.622 191.859 123.751C191.39 122.88 191.156 121.861 191.156 120.695ZM210.263 123.389V126.304H208.514C207.268 126.304 206.296 126.003 205.599 125.399C204.902 124.783 204.554 123.785 204.554 122.404V117.941H203.187V115.087H204.554V112.353H207.991V115.087H210.243V117.941H207.991V122.444C207.991 122.779 208.072 123.021 208.233 123.168C208.393 123.315 208.661 123.389 209.037 123.389H210.263ZM235.858 112.192L232.179 126.304H228.017L225.766 117.017L223.434 126.304H219.272L215.694 112.192H219.373L221.403 122.464L223.916 112.192H227.696L230.108 122.464L232.159 112.192H235.858ZM236.898 120.675C236.898 119.523 237.112 118.511 237.541 117.64C237.984 116.769 238.58 116.098 239.33 115.629C240.081 115.16 240.919 114.926 241.843 114.926C242.634 114.926 243.324 115.087 243.914 115.408C244.517 115.73 244.979 116.152 245.301 116.675V115.087H248.739V126.304H245.301V124.716C244.966 125.239 244.497 125.661 243.894 125.982C243.304 126.304 242.614 126.465 241.823 126.465C240.912 126.465 240.081 126.23 239.33 125.761C238.58 125.279 237.984 124.602 237.541 123.731C237.112 122.846 236.898 121.828 236.898 120.675ZM245.301 120.695C245.301 119.838 245.06 119.161 244.577 118.665C244.108 118.169 243.532 117.921 242.849 117.921C242.165 117.921 241.582 118.169 241.1 118.665C240.63 119.147 240.396 119.818 240.396 120.675C240.396 121.533 240.63 122.217 241.1 122.726C241.582 123.222 242.165 123.47 242.849 123.47C243.532 123.47 244.108 123.222 244.577 122.726C245.06 122.23 245.301 121.553 245.301 120.695ZM254.663 111.428V126.304H251.226V111.428H254.663ZM260.592 111.428V126.304H257.155V111.428H260.592ZM273.658 120.514C273.658 120.836 273.638 121.171 273.597 121.52H265.817C265.871 122.217 266.092 122.753 266.481 123.128C266.883 123.49 267.372 123.671 267.948 123.671C268.806 123.671 269.402 123.309 269.738 122.585H273.396C273.209 123.322 272.867 123.986 272.371 124.575C271.889 125.165 271.279 125.627 270.542 125.962C269.805 126.297 268.98 126.465 268.069 126.465C266.97 126.465 265.992 126.23 265.134 125.761C264.276 125.292 263.606 124.622 263.124 123.751C262.641 122.88 262.4 121.861 262.4 120.695C262.4 119.529 262.634 118.511 263.103 117.64C263.586 116.769 264.256 116.098 265.114 115.629C265.972 115.16 266.957 114.926 268.069 114.926C269.155 114.926 270.119 115.154 270.964 115.609C271.808 116.065 272.465 116.715 272.934 117.559C273.416 118.404 273.658 119.389 273.658 120.514ZM270.14 119.61C270.14 119.02 269.939 118.551 269.536 118.203C269.134 117.854 268.632 117.68 268.029 117.68C267.452 117.68 266.963 117.847 266.561 118.182C266.173 118.518 265.931 118.993 265.838 119.61H270.14ZM281.723 123.389V126.304H279.974C278.728 126.304 277.756 126.003 277.059 125.399C276.362 124.783 276.014 123.785 276.014 122.404V117.941H274.647V115.087H276.014V112.353H279.452V115.087H281.703V117.941H279.452V122.444C279.452 122.779 279.532 123.021 279.693 123.168C279.854 123.315 280.122 123.389 280.497 123.389H281.723Z" fill="#18181B"/>
<path d="M77.8637 150.939H79.7668C80.3297 150.939 80.7764 150.796 81.107 150.51C81.4376 150.215 81.6029 149.822 81.6029 149.331C81.6029 148.831 81.4376 148.433 81.107 148.138C80.7764 147.834 80.3297 147.683 79.7668 147.683H77.8637V150.939ZM80.008 152.119H77.8637V156.005H76.5503V146.503H80.008C80.8747 146.503 81.5806 146.771 82.1256 147.307C82.6706 147.843 82.9431 148.513 82.9431 149.318C82.9431 150.131 82.6706 150.801 82.1256 151.328C81.5806 151.855 80.8747 152.119 80.008 152.119ZM85.2873 156.005H84.0275V146.302H85.2873V156.005ZM87.9933 152.119H91.518C91.5001 151.636 91.3393 151.243 91.0355 150.939C90.7318 150.626 90.3029 150.47 89.7489 150.47C89.2486 150.47 88.8376 150.635 88.516 150.966C88.1943 151.288 88.0201 151.672 87.9933 152.119ZM91.7056 153.794L92.7912 154.169C92.6036 154.768 92.2551 155.259 91.7458 155.643C91.2366 156.019 90.6201 156.206 89.8964 156.206C88.994 156.206 88.2256 155.898 87.5912 155.281C86.9658 154.656 86.6531 153.816 86.6531 152.762C86.6531 151.779 86.9568 150.966 87.5644 150.323C88.172 149.679 88.8957 149.358 89.7355 149.358C90.7094 149.358 91.4689 149.666 92.0139 150.283C92.5589 150.89 92.8314 151.708 92.8314 152.735C92.8314 152.896 92.8225 153.03 92.8046 153.137H87.9531C87.962 153.709 88.1496 154.178 88.516 154.544C88.8912 154.911 89.3513 155.094 89.8964 155.094C90.8166 155.094 91.4197 154.661 91.7056 153.794ZM93.7829 154.276C93.7829 153.722 93.9616 153.28 94.3189 152.95C94.6763 152.61 95.1499 152.4 95.7396 152.32L97.4818 152.065C97.8124 152.02 97.9777 151.859 97.9777 151.583C97.9777 151.243 97.8616 150.966 97.6293 150.752C97.3969 150.537 97.0485 150.43 96.5839 150.43C96.155 150.43 95.8155 150.551 95.5653 150.792C95.3152 151.024 95.1677 151.337 95.1231 151.73L93.9169 151.448C93.9794 150.832 94.2609 150.332 94.7612 149.947C95.2616 149.554 95.8602 149.358 96.5571 149.358C97.4684 149.358 98.143 149.581 98.5808 150.028C99.0186 150.466 99.2375 151.029 99.2375 151.717V154.946C99.2375 155.331 99.2643 155.684 99.3179 156.005H98.0849C98.0402 155.737 98.0179 155.447 98.0179 155.134C97.8392 155.42 97.5756 155.67 97.2272 155.885C96.8877 156.099 96.4588 156.206 95.9406 156.206C95.3062 156.206 94.788 156.019 94.386 155.643C93.9839 155.259 93.7829 154.803 93.7829 154.276ZM96.1148 155.147C96.6777 155.147 97.1289 154.996 97.4684 154.692C97.8079 154.388 97.9777 153.906 97.9777 153.244V152.95L96.0076 153.244C95.7217 153.289 95.4939 153.392 95.3241 153.553C95.1543 153.713 95.0695 153.932 95.0695 154.209C95.0695 154.459 95.1633 154.678 95.3509 154.866C95.5475 155.054 95.8021 155.147 96.1148 155.147ZM100.342 154.33L101.482 153.928C101.526 154.276 101.678 154.567 101.937 154.799C102.196 155.022 102.545 155.134 102.983 155.134C103.322 155.134 103.59 155.054 103.787 154.893C103.983 154.723 104.082 154.518 104.082 154.276C104.082 153.847 103.805 153.57 103.251 153.445L102.152 153.204C101.651 153.097 101.258 152.883 100.972 152.561C100.686 152.239 100.543 151.851 100.543 151.395C100.543 150.841 100.767 150.363 101.213 149.961C101.669 149.559 102.21 149.358 102.835 149.358C103.246 149.358 103.612 149.42 103.934 149.545C104.256 149.662 104.506 149.818 104.685 150.014C104.863 150.211 104.997 150.394 105.087 150.564C105.176 150.734 105.243 150.908 105.288 151.087L104.175 151.502C104.157 151.395 104.126 151.292 104.082 151.194C104.037 151.087 103.965 150.97 103.867 150.845C103.778 150.72 103.644 150.622 103.465 150.551C103.286 150.47 103.076 150.43 102.835 150.43C102.522 150.43 102.263 150.515 102.058 150.685C101.861 150.854 101.763 151.055 101.763 151.288C101.763 151.699 102.009 151.958 102.5 152.065L103.545 152.293C104.117 152.418 104.555 152.65 104.859 152.99C105.172 153.32 105.328 153.727 105.328 154.209C105.328 154.719 105.118 155.179 104.698 155.59C104.287 156.001 103.711 156.206 102.969 156.206C102.174 156.206 101.553 156.01 101.106 155.617C100.66 155.214 100.405 154.786 100.342 154.33ZM107.503 152.119H111.027C111.009 151.636 110.849 151.243 110.545 150.939C110.241 150.626 109.812 150.47 109.258 150.47C108.758 150.47 108.347 150.635 108.025 150.966C107.704 151.288 107.529 151.672 107.503 152.119ZM111.215 153.794L112.301 154.169C112.113 154.768 111.764 155.259 111.255 155.643C110.746 156.019 110.129 156.206 109.406 156.206C108.503 156.206 107.735 155.898 107.101 155.281C106.475 154.656 106.162 153.816 106.162 152.762C106.162 151.779 106.466 150.966 107.074 150.323C107.681 149.679 108.405 149.358 109.245 149.358C110.219 149.358 110.978 149.666 111.523 150.283C112.068 150.89 112.341 151.708 112.341 152.735C112.341 152.896 112.332 153.03 112.314 153.137H107.462C107.471 153.709 107.659 154.178 108.025 154.544C108.401 154.911 108.861 155.094 109.406 155.094C110.326 155.094 110.929 154.661 111.215 153.794ZM119.497 150.524C118.952 150.524 118.488 150.72 118.104 151.113C117.728 151.507 117.541 152.061 117.541 152.775C117.541 153.481 117.728 154.035 118.104 154.437C118.488 154.839 118.957 155.04 119.511 155.04C120.047 155.04 120.453 154.906 120.73 154.638C121.016 154.37 121.208 154.062 121.307 153.713L122.419 154.196C122.24 154.732 121.901 155.201 121.4 155.603C120.909 156.005 120.279 156.206 119.511 156.206C118.573 156.206 117.795 155.88 117.179 155.228C116.562 154.576 116.254 153.758 116.254 152.775C116.254 151.775 116.562 150.957 117.179 150.323C117.795 149.679 118.568 149.358 119.497 149.358C120.284 149.358 120.918 149.559 121.4 149.961C121.892 150.363 122.213 150.845 122.365 151.408L121.226 151.891C121.128 151.515 120.94 151.194 120.663 150.926C120.386 150.658 119.998 150.524 119.497 150.524ZM124.904 154.477C125.297 154.879 125.775 155.08 126.338 155.08C126.901 155.08 127.374 154.879 127.758 154.477C128.151 154.066 128.348 153.499 128.348 152.775C128.348 152.061 128.151 151.502 127.758 151.1C127.374 150.689 126.901 150.484 126.338 150.484C125.775 150.484 125.297 150.689 124.904 151.1C124.519 151.502 124.327 152.061 124.327 152.775C124.327 153.499 124.519 154.066 124.904 154.477ZM123.965 150.336C124.591 149.684 125.382 149.358 126.338 149.358C127.294 149.358 128.08 149.684 128.696 150.336C129.322 150.979 129.635 151.792 129.635 152.775C129.635 153.767 129.326 154.589 128.71 155.241C128.093 155.885 127.303 156.206 126.338 156.206C125.373 156.206 124.582 155.885 123.965 155.241C123.349 154.589 123.041 153.767 123.041 152.775C123.041 151.792 123.349 150.979 123.965 150.336ZM132.251 152.279V156.005H130.992V149.559H132.225V150.484C132.654 149.742 133.315 149.371 134.208 149.371C134.95 149.371 135.517 149.608 135.91 150.081C136.312 150.555 136.513 151.167 136.513 151.918V156.005H135.254V152.132C135.254 151.051 134.753 150.51 133.753 150.51C133.279 150.51 132.908 150.68 132.64 151.02C132.381 151.35 132.251 151.77 132.251 152.279ZM139.522 152.279V156.005H138.263V149.559H139.496V150.484C139.924 149.742 140.586 149.371 141.479 149.371C142.221 149.371 142.788 149.608 143.181 150.081C143.583 150.555 143.784 151.167 143.784 151.918V156.005H142.524V152.132C142.524 151.051 142.024 150.51 141.023 150.51C140.55 150.51 140.179 150.68 139.911 151.02C139.652 151.35 139.522 151.77 139.522 152.279ZM146.351 152.119H149.876C149.858 151.636 149.697 151.243 149.393 150.939C149.09 150.626 148.661 150.47 148.107 150.47C147.606 150.47 147.195 150.635 146.874 150.966C146.552 151.288 146.378 151.672 146.351 152.119ZM150.063 153.794L151.149 154.169C150.961 154.768 150.613 155.259 150.104 155.643C149.594 156.019 148.978 156.206 148.254 156.206C147.352 156.206 146.583 155.898 145.949 155.281C145.324 154.656 145.011 153.816 145.011 152.762C145.011 151.779 145.315 150.966 145.922 150.323C146.53 149.679 147.253 149.358 148.093 149.358C149.067 149.358 149.827 149.666 150.372 150.283C150.917 150.89 151.189 151.708 151.189 152.735C151.189 152.896 151.18 153.03 151.162 153.137H146.311C146.32 153.709 146.507 154.178 146.874 154.544C147.249 154.911 147.709 155.094 148.254 155.094C149.174 155.094 149.778 154.661 150.063 153.794ZM155.25 150.524C154.705 150.524 154.24 150.72 153.856 151.113C153.481 151.507 153.293 152.061 153.293 152.775C153.293 153.481 153.481 154.035 153.856 154.437C154.24 154.839 154.709 155.04 155.263 155.04C155.799 155.04 156.206 154.906 156.483 154.638C156.769 154.37 156.961 154.062 157.059 153.713L158.172 154.196C157.993 154.732 157.653 155.201 157.153 155.603C156.662 156.005 156.032 156.206 155.263 156.206C154.325 156.206 153.548 155.88 152.931 155.228C152.315 154.576 152.007 153.758 152.007 152.775C152.007 151.775 152.315 150.957 152.931 150.323C153.548 149.679 154.321 149.358 155.25 149.358C156.036 149.358 156.671 149.559 157.153 149.961C157.644 150.363 157.966 150.845 158.118 151.408L156.979 151.891C156.881 151.515 156.693 151.194 156.416 150.926C156.139 150.658 155.75 150.524 155.25 150.524ZM161.084 147.522V149.559H162.477V150.698H161.084V154.048C161.084 154.352 161.151 154.576 161.285 154.719C161.427 154.862 161.66 154.933 161.981 154.933C162.169 154.933 162.334 154.915 162.477 154.879V155.952C162.263 156.032 161.977 156.072 161.62 156.072C161.066 156.072 160.628 155.911 160.306 155.59C159.985 155.268 159.824 154.817 159.824 154.236V150.698H158.591V149.559H158.939C159.27 149.559 159.515 149.469 159.676 149.291C159.846 149.103 159.931 148.862 159.931 148.567V147.522H161.084ZM168.608 158.699H167.228L168.836 155.295L166.062 149.559H167.509L169.52 154.008L171.45 149.559H172.803L168.608 158.699ZM174.826 154.477C175.219 154.879 175.697 155.08 176.26 155.08C176.823 155.08 177.296 154.879 177.68 154.477C178.073 154.066 178.27 153.499 178.27 152.775C178.27 152.061 178.073 151.502 177.68 151.1C177.296 150.689 176.823 150.484 176.26 150.484C175.697 150.484 175.219 150.689 174.826 151.1C174.441 151.502 174.249 152.061 174.249 152.775C174.249 153.499 174.441 154.066 174.826 154.477ZM173.888 150.336C174.513 149.684 175.304 149.358 176.26 149.358C177.216 149.358 178.002 149.684 178.618 150.336C179.244 150.979 179.557 151.792 179.557 152.775C179.557 153.767 179.248 154.589 178.632 155.241C178.015 155.885 177.225 156.206 176.26 156.206C175.295 156.206 174.504 155.885 173.888 155.241C173.271 154.589 172.963 153.767 172.963 152.775C172.963 151.792 173.271 150.979 173.888 150.336ZM185.097 155.228C184.927 155.55 184.668 155.795 184.319 155.965C183.971 156.126 183.596 156.206 183.194 156.206C182.461 156.206 181.876 155.965 181.438 155.483C181 154.991 180.781 154.37 180.781 153.62V149.559H182.041V153.432C182.041 153.914 182.157 154.312 182.39 154.625C182.631 154.937 183.002 155.094 183.502 155.094C184.002 155.094 184.382 154.946 184.641 154.652C184.9 154.348 185.03 153.946 185.03 153.445V149.559H186.29V154.812C186.29 155.232 186.312 155.63 186.357 156.005H185.15C185.115 155.809 185.097 155.55 185.097 155.228ZM191.763 149.492V150.832C191.575 150.805 191.392 150.792 191.214 150.792C190.034 150.792 189.444 151.453 189.444 152.775V156.005H188.185V149.559H189.418V150.685C189.811 149.863 190.454 149.452 191.348 149.452C191.491 149.452 191.629 149.465 191.763 149.492ZM201.723 149.559L198.976 152.279L201.777 156.005H200.195L198.091 153.164L197.193 154.062V156.005H195.947V146.302H197.193V152.413L199.981 149.559H201.723ZM203.211 152.119H206.736C206.718 151.636 206.557 151.243 206.253 150.939C205.949 150.626 205.521 150.47 204.967 150.47C204.466 150.47 204.055 150.635 203.734 150.966C203.412 151.288 203.238 151.672 203.211 152.119ZM206.923 153.794L208.009 154.169C207.821 154.768 207.473 155.259 206.963 155.643C206.454 156.019 205.838 156.206 205.114 156.206C204.212 156.206 203.443 155.898 202.809 155.281C202.183 154.656 201.871 153.816 201.871 152.762C201.871 151.779 202.174 150.966 202.782 150.323C203.39 149.679 204.113 149.358 204.953 149.358C205.927 149.358 206.687 149.666 207.232 150.283C207.777 150.89 208.049 151.708 208.049 152.735C208.049 152.896 208.04 153.03 208.022 153.137H203.171C203.18 153.709 203.367 154.178 203.734 154.544C204.109 154.911 204.569 155.094 205.114 155.094C206.034 155.094 206.637 154.661 206.923 153.794ZM210.649 158.552H209.403V149.559H210.622V150.564C210.81 150.224 211.091 149.947 211.466 149.733C211.842 149.519 212.28 149.411 212.78 149.411C213.709 149.411 214.433 149.729 214.951 150.363C215.478 150.997 215.742 151.801 215.742 152.775C215.742 153.758 215.469 154.571 214.924 155.214C214.388 155.858 213.66 156.179 212.74 156.179C212.266 156.179 211.846 156.081 211.48 155.885C211.114 155.688 210.837 155.438 210.649 155.134V158.552ZM214.455 152.775C214.455 152.123 214.281 151.587 213.932 151.167C213.593 150.738 213.133 150.524 212.552 150.524C211.98 150.524 211.516 150.738 211.158 151.167C210.81 151.587 210.636 152.123 210.636 152.775C210.636 153.445 210.81 153.995 211.158 154.424C211.516 154.844 211.98 155.054 212.552 155.054C213.124 155.054 213.584 154.844 213.932 154.424C214.281 153.995 214.455 153.445 214.455 152.775ZM218.352 156.005H217.092V146.302H218.352V156.005ZM223.819 149.492V150.832C223.631 150.805 223.448 150.792 223.269 150.792C222.09 150.792 221.5 151.453 221.5 152.775V156.005H220.241V149.559H221.474V150.685C221.867 149.863 222.51 149.452 223.403 149.452C223.546 149.452 223.685 149.465 223.819 149.492ZM231.635 149.559H232.935L234.61 154.41L236.031 149.559H237.357L235.267 156.005H233.967L232.251 151.1L230.576 156.005H229.249L227.132 149.559H228.512L229.96 154.41L231.635 149.559ZM237.908 154.276C237.908 153.722 238.087 153.28 238.444 152.95C238.802 152.61 239.275 152.4 239.865 152.32L241.607 152.065C241.938 152.02 242.103 151.859 242.103 151.583C242.103 151.243 241.987 150.966 241.755 150.752C241.522 150.537 241.174 150.43 240.709 150.43C240.28 150.43 239.941 150.551 239.691 150.792C239.44 151.024 239.293 151.337 239.248 151.73L238.042 151.448C238.105 150.832 238.386 150.332 238.886 149.947C239.387 149.554 239.985 149.358 240.682 149.358C241.594 149.358 242.268 149.581 242.706 150.028C243.144 150.466 243.363 151.029 243.363 151.717V154.946C243.363 155.331 243.39 155.684 243.443 156.005H242.21C242.165 155.737 242.143 155.447 242.143 155.134C241.964 155.42 241.701 155.67 241.352 155.885C241.013 156.099 240.584 156.206 240.066 156.206C239.431 156.206 238.913 156.019 238.511 155.643C238.109 155.259 237.908 154.803 237.908 154.276ZM240.24 155.147C240.803 155.147 241.254 154.996 241.594 154.692C241.933 154.388 242.103 153.906 242.103 153.244V152.95L240.133 153.244C239.847 153.289 239.619 153.392 239.449 153.553C239.28 153.713 239.195 153.932 239.195 154.209C239.195 154.459 239.289 154.678 239.476 154.866C239.673 155.054 239.927 155.147 240.24 155.147ZM246.33 156.005H245.071V146.302H246.33V156.005ZM249.479 156.005H248.219V146.302H249.479V156.005ZM252.185 152.119H255.709C255.692 151.636 255.531 151.243 255.227 150.939C254.923 150.626 254.494 150.47 253.94 150.47C253.44 150.47 253.029 150.635 252.707 150.966C252.386 151.288 252.211 151.672 252.185 152.119ZM255.897 153.794L256.983 154.169C256.795 154.768 256.447 155.259 255.937 155.643C255.428 156.019 254.811 156.206 254.088 156.206C253.185 156.206 252.417 155.898 251.783 155.281C251.157 154.656 250.844 153.816 250.844 152.762C250.844 151.779 251.148 150.966 251.756 150.323C252.363 149.679 253.087 149.358 253.927 149.358C254.901 149.358 255.66 149.666 256.205 150.283C256.75 150.89 257.023 151.708 257.023 152.735C257.023 152.896 257.014 153.03 256.996 153.137H252.144C252.153 153.709 252.341 154.178 252.707 154.544C253.083 154.911 253.543 155.094 254.088 155.094C255.008 155.094 255.611 154.661 255.897 153.794ZM260.065 147.522V149.559H261.459V150.698H260.065V154.048C260.065 154.352 260.132 154.576 260.266 154.719C260.409 154.862 260.641 154.933 260.963 154.933C261.151 154.933 261.316 154.915 261.459 154.879V155.952C261.244 156.032 260.958 156.072 260.601 156.072C260.047 156.072 259.609 155.911 259.288 155.59C258.966 155.268 258.805 154.817 258.805 154.236V150.698H257.572V149.559H257.921C258.251 149.559 258.497 149.469 258.658 149.291C258.828 149.103 258.912 148.862 258.912 148.567V147.522H260.065ZM267.67 147.522V149.559H269.064V150.698H267.67V154.048C267.67 154.352 267.737 154.576 267.871 154.719C268.014 154.862 268.247 154.933 268.568 154.933C268.756 154.933 268.921 154.915 269.064 154.879V155.952C268.85 156.032 268.564 156.072 268.206 156.072C267.652 156.072 267.215 155.911 266.893 155.59C266.571 155.268 266.41 154.817 266.41 154.236V150.698H265.177V149.559H265.526C265.856 149.559 266.102 149.469 266.263 149.291C266.433 149.103 266.518 148.862 266.518 148.567V147.522H267.67ZM271.752 154.477C272.145 154.879 272.623 155.08 273.186 155.08C273.749 155.08 274.223 154.879 274.607 154.477C275 154.066 275.197 153.499 275.197 152.775C275.197 152.061 275 151.502 274.607 151.1C274.223 150.689 273.749 150.484 273.186 150.484C272.623 150.484 272.145 150.689 271.752 151.1C271.368 151.502 271.176 152.061 271.176 152.775C271.176 153.499 271.368 154.066 271.752 154.477ZM270.814 150.336C271.44 149.684 272.23 149.358 273.186 149.358C274.142 149.358 274.929 149.684 275.545 150.336C276.171 150.979 276.483 151.792 276.483 152.775C276.483 153.767 276.175 154.589 275.558 155.241C274.942 155.885 274.151 156.206 273.186 156.206C272.221 156.206 271.431 155.885 270.814 155.241C270.198 154.589 269.889 153.767 269.889 152.775C269.889 151.792 270.198 150.979 270.814 150.336ZM283.643 150.524C283.098 150.524 282.634 150.72 282.25 151.113C281.874 151.507 281.687 152.061 281.687 152.775C281.687 153.481 281.874 154.035 282.25 154.437C282.634 154.839 283.103 155.04 283.657 155.04C284.193 155.04 284.6 154.906 284.876 154.638C285.162 154.37 285.354 154.062 285.453 153.713L286.565 154.196C286.386 154.732 286.047 155.201 285.547 155.603C285.055 156.005 284.425 156.206 283.657 156.206C282.719 156.206 281.941 155.88 281.325 155.228C280.708 154.576 280.4 153.758 280.4 152.775C280.4 151.775 280.708 150.957 281.325 150.323C281.941 149.679 282.714 149.358 283.643 149.358C284.43 149.358 285.064 149.559 285.547 149.961C286.038 150.363 286.36 150.845 286.512 151.408L285.372 151.891C285.274 151.515 285.086 151.194 284.809 150.926C284.532 150.658 284.144 150.524 283.643 150.524ZM289.05 154.477C289.443 154.879 289.921 155.08 290.484 155.08C291.047 155.08 291.52 154.879 291.904 154.477C292.298 154.066 292.494 153.499 292.494 152.775C292.494 152.061 292.298 151.502 291.904 151.1C291.52 150.689 291.047 150.484 290.484 150.484C289.921 150.484 289.443 150.689 289.05 151.1C288.666 151.502 288.473 152.061 288.473 152.775C288.473 153.499 288.666 154.066 289.05 154.477ZM288.112 150.336C288.737 149.684 289.528 149.358 290.484 149.358C291.44 149.358 292.226 149.684 292.843 150.336C293.468 150.979 293.781 151.792 293.781 152.775C293.781 153.767 293.472 154.589 292.856 155.241C292.239 155.885 291.449 156.206 290.484 156.206C289.519 156.206 288.728 155.885 288.112 155.241C287.495 154.589 287.187 153.767 287.187 152.775C287.187 151.792 287.495 150.979 288.112 150.336ZM296.398 152.279V156.005H295.138V149.559H296.371V150.484C296.8 149.742 297.461 149.371 298.354 149.371C299.096 149.371 299.663 149.608 300.056 150.081C300.458 150.555 300.66 151.167 300.66 151.918V156.005H299.4V152.132C299.4 151.051 298.899 150.51 297.899 150.51C297.425 150.51 297.054 150.68 296.786 151.02C296.527 151.35 296.398 151.77 296.398 152.279ZM304.097 147.522V149.559H305.491V150.698H304.097V154.048C304.097 154.352 304.164 154.576 304.298 154.719C304.441 154.862 304.674 154.933 304.995 154.933C305.183 154.933 305.348 154.915 305.491 154.879V155.952C305.277 156.032 304.991 156.072 304.634 156.072C304.08 156.072 303.642 155.911 303.32 155.59C302.998 155.268 302.838 154.817 302.838 154.236V150.698H301.605V149.559H301.953C302.284 149.559 302.529 149.469 302.69 149.291C302.86 149.103 302.945 148.862 302.945 148.567V147.522H304.097ZM308.165 156.005H306.918V149.559H308.165V156.005ZM306.891 147.763C306.722 147.584 306.637 147.37 306.637 147.12C306.637 146.869 306.722 146.655 306.891 146.476C307.07 146.298 307.284 146.208 307.535 146.208C307.785 146.208 307.999 146.298 308.178 146.476C308.357 146.646 308.446 146.861 308.446 147.12C308.446 147.37 308.357 147.584 308.178 147.763C307.999 147.933 307.785 148.018 307.535 148.018C307.284 148.018 307.07 147.933 306.891 147.763ZM311.313 152.279V156.005H310.053V149.559H311.286V150.484C311.715 149.742 312.376 149.371 313.27 149.371C314.011 149.371 314.579 149.608 314.972 150.081C315.374 150.555 315.575 151.167 315.575 151.918V156.005H314.315V152.132C314.315 151.051 313.815 150.51 312.814 150.51C312.341 150.51 311.97 150.68 311.702 151.02C311.443 151.35 311.313 151.77 311.313 152.279ZM321.442 155.228C321.272 155.55 321.013 155.795 320.664 155.965C320.316 156.126 319.941 156.206 319.539 156.206C318.806 156.206 318.221 155.965 317.783 155.483C317.345 154.991 317.126 154.37 317.126 153.62V149.559H318.386V153.432C318.386 153.914 318.502 154.312 318.735 154.625C318.976 154.937 319.347 155.094 319.847 155.094C320.347 155.094 320.727 154.946 320.986 154.652C321.245 154.348 321.375 153.946 321.375 153.445V149.559H322.635V154.812C322.635 155.232 322.657 155.63 322.702 156.005H321.495C321.46 155.809 321.442 155.55 321.442 155.228ZM325.282 152.119H328.807C328.789 151.636 328.628 151.243 328.324 150.939C328.02 150.626 327.591 150.47 327.037 150.47C326.537 150.47 326.126 150.635 325.804 150.966C325.483 151.288 325.309 151.672 325.282 152.119ZM328.994 153.794L330.08 154.169C329.892 154.768 329.544 155.259 329.034 155.643C328.525 156.019 327.909 156.206 327.185 156.206C326.282 156.206 325.514 155.898 324.88 155.281C324.254 154.656 323.942 153.816 323.942 152.762C323.942 151.779 324.245 150.966 324.853 150.323C325.461 149.679 326.184 149.358 327.024 149.358C327.998 149.358 328.757 149.666 329.302 150.283C329.847 150.89 330.12 151.708 330.12 152.735C330.12 152.896 330.111 153.03 330.093 153.137H325.242C325.251 153.709 325.438 154.178 325.804 154.544C326.18 154.911 326.64 155.094 327.185 155.094C328.105 155.094 328.708 154.661 328.994 153.794Z" fill="#7E8082"/>
<rect x="123.747" y="188.809" width="158.505" height="40.4536" rx="5.8634" fill="#1A73E8"/>
<path d="M145.861 213.737C143.301 213.737 141.063 211.888 141.063 208.792C141.063 205.696 143.381 203.833 145.847 203.833C148.26 203.833 149.694 205.254 150.123 206.915L148.608 207.425C148.327 206.272 147.442 205.347 145.847 205.347C144.279 205.347 142.711 206.487 142.711 208.792C142.711 211.016 144.239 212.196 145.861 212.196C147.456 212.196 148.367 211.177 148.689 210.105L150.163 210.588C149.734 212.196 148.287 213.737 145.861 213.737ZM154.294 212.343C155.259 212.343 156.117 211.633 156.117 210.266C156.117 208.912 155.259 208.215 154.294 208.215C153.342 208.215 152.471 208.912 152.471 210.266C152.471 211.62 153.342 212.343 154.294 212.343ZM154.294 206.808C156.251 206.808 157.685 208.269 157.685 210.266C157.685 212.276 156.251 213.737 154.294 213.737C152.351 213.737 150.917 212.276 150.917 210.266C150.917 208.269 152.351 206.808 154.294 206.808ZM160.742 209.77V213.536H159.187V207.009H160.701V207.88C161.13 207.13 161.908 206.822 162.631 206.822C164.226 206.822 164.99 207.974 164.99 209.408V213.536H163.435V209.676C163.435 208.872 163.074 208.229 162.095 208.229C161.211 208.229 160.742 208.912 160.742 209.77ZM168.437 209.77V213.536H166.883V207.009H168.397V207.88C168.826 207.13 169.603 206.822 170.327 206.822C171.922 206.822 172.686 207.974 172.686 209.408V213.536H171.131V209.676C171.131 208.872 170.769 208.229 169.791 208.229C168.906 208.229 168.437 208.912 168.437 209.77ZM175.664 209.556H178.867C178.84 208.792 178.331 208.108 177.259 208.108C176.28 208.108 175.718 208.859 175.664 209.556ZM179.041 211.258L180.355 211.673C180.006 212.812 178.974 213.737 177.406 213.737C175.637 213.737 174.069 212.451 174.069 210.239C174.069 208.175 175.597 206.808 177.245 206.808C179.256 206.808 180.435 208.135 180.435 210.199C180.435 210.454 180.408 210.668 180.395 210.695H175.624C175.664 211.687 176.441 212.397 177.406 212.397C178.344 212.397 178.827 211.901 179.041 211.258ZM184.762 208.242C183.81 208.242 182.966 208.953 182.966 210.266C182.966 211.579 183.81 212.316 184.789 212.316C185.807 212.316 186.276 211.606 186.424 211.11L187.791 211.606C187.483 212.625 186.504 213.737 184.789 213.737C182.872 213.737 181.411 212.249 181.411 210.266C181.411 208.256 182.872 206.808 184.749 206.808C186.504 206.808 187.469 207.907 187.737 208.953L186.343 209.462C186.196 208.886 185.754 208.242 184.762 208.242ZM191.142 205.012V207.009H192.495V208.39H191.142V211.419C191.142 211.995 191.396 212.236 191.973 212.236C192.187 212.236 192.442 212.196 192.509 212.182V213.469C192.415 213.509 192.12 213.616 191.557 213.616C190.351 213.616 189.6 212.893 189.6 211.673V208.39H188.394V207.009H188.729C189.426 207.009 189.734 206.567 189.734 205.991V205.012H191.142ZM203.355 213.536L200.393 209.422L199.133 210.802V213.536H197.525V204.034H199.133V208.591L203.221 204.034H205.338L201.492 208.229L205.378 213.536H203.355ZM207.936 216.082H206.395V207.009H207.896V207.894C208.218 207.331 208.968 206.862 209.974 206.862C211.903 206.862 212.989 208.336 212.989 210.266C212.989 212.223 211.796 213.697 209.92 213.697C208.982 213.697 208.272 213.295 207.936 212.799V216.082ZM211.434 210.266C211.434 209.046 210.724 208.242 209.679 208.242C208.66 208.242 207.923 209.046 207.923 210.266C207.923 211.512 208.66 212.316 209.679 212.316C210.711 212.316 211.434 211.512 211.434 210.266ZM216.038 213.536H214.484V203.833H216.038V213.536ZM221.863 206.969V208.551C221.689 208.524 221.515 208.51 221.354 208.51C220.148 208.51 219.598 209.207 219.598 210.427V213.536H218.044V207.009H219.558V208.055C219.866 207.344 220.59 206.929 221.448 206.929C221.635 206.929 221.796 206.956 221.863 206.969ZM235.385 211.03L237.248 204.034H238.91L236.243 213.536H234.581L232.276 206.353L229.97 213.536H228.322L225.628 204.034H227.317L229.22 210.976L231.445 204.034H233.12L235.385 211.03ZM239.276 211.767C239.276 210.601 240.134 209.958 241.246 209.797L242.921 209.542C243.296 209.489 243.404 209.301 243.404 209.073C243.404 208.524 243.028 208.081 242.171 208.081C241.353 208.081 240.897 208.604 240.83 209.261L239.41 208.939C239.53 207.813 240.549 206.808 242.157 206.808C244.168 206.808 244.931 207.947 244.931 209.247V212.491C244.931 213.08 244.998 213.469 245.012 213.536H243.564C243.551 213.496 243.497 213.228 243.497 212.705C243.189 213.201 242.546 213.737 241.487 213.737C240.12 213.737 239.276 212.799 239.276 211.767ZM241.782 212.518C242.653 212.518 243.404 212.102 243.404 210.829V210.534L241.702 210.789C241.219 210.869 240.83 211.137 240.83 211.673C240.83 212.115 241.166 212.518 241.782 212.518ZM248.365 213.536H246.811V203.833H248.365V213.536ZM251.925 213.536H250.371V203.833H251.925V213.536ZM255.016 209.556H258.219C258.193 208.792 257.683 208.108 256.611 208.108C255.633 208.108 255.07 208.859 255.016 209.556ZM258.394 211.258L259.707 211.673C259.358 212.812 258.327 213.737 256.758 213.737C254.989 213.737 253.421 212.451 253.421 210.239C253.421 208.175 254.949 206.808 256.598 206.808C258.608 206.808 259.787 208.135 259.787 210.199C259.787 210.454 259.761 210.668 259.747 210.695H254.976C255.016 211.687 255.794 212.397 256.758 212.397C257.697 212.397 258.179 211.901 258.394 211.258ZM263.243 205.012V207.009H264.597V208.39H263.243V211.419C263.243 211.995 263.498 212.236 264.074 212.236C264.288 212.236 264.543 212.196 264.61 212.182V213.469C264.516 213.509 264.221 213.616 263.659 213.616C262.452 213.616 261.702 212.893 261.702 211.673V208.39H260.496V207.009H260.831C261.528 207.009 261.836 206.567 261.836 205.991V205.012H263.243Z" fill="white"/>
</g>
<defs>
<linearGradient id="paint0_linear_596_572" x1="173.5" y1="0.5" x2="167.5" y2="365" gradientUnits="userSpaceOnUse">
<stop stop-color="#E2F0FF"/>
<stop offset="1" stop-color="white"/>
</linearGradient>
<clipPath id="clip0_596_572">
<path d="M0 7.5C0 3.63401 3.13401 0.5 7 0.5H340C343.866 0.5 347 3.63401 347 7.5V312.5C347 316.366 343.866 319.5 340 319.5H6.99999C3.134 319.5 0 316.366 0 312.5V7.5Z" fill="white"/>
</clipPath>
</defs>
</svg>
